<svg xmlns="http://www.w3.org/2000/svg" data-name="Layer 1" viewBox="0 0 100 125" x="0px" y="0px"><title>A36</title><path d="M84.19409,38.80426a.314.314,0,0,0-.53607.222V45h-12.158V6a1,1,0,0,0-1-1h-41a1,1,0,0,0-1,1V45H16.342V39.02625a.314.314,0,0,0-.536-.222L5.2757,49.33459a.941.941,0,0,0,0,1.33082L15.806,61.19574a.314.314,0,0,0,.536-.222V55h12.158V94a1,1,0,0,0,1,1h41a1,1,0,0,0,1-1V55H83.658v5.97375a.314.314,0,0,0,.53607.222L94.72443,50.66541a.941.941,0,0,0,0-1.33082ZM61.50006,85h-23V15h23Z"/><text x="0" y="115" fill="#000000" font-size="5px" font-weight="bold" font-family="'Helvetica Neue', Helvetica, Arial-Unicode, Arial, Sans-serif">Created by Hrbon</text><text x="0" y="120" fill="#000000" font-size="5px" font-weight="bold" font-family="'Helvetica Neue', Helvetica, Arial-Unicode, Arial, Sans-serif">from the Noun Project</text></svg>